<?xml version="1.0" standalone="no"?><!DOCTYPE svg PUBLIC "-//W3C//DTD SVG 1.1//EN" "http://www.w3.org/Graphics/SVG/1.1/DTD/svg11.dtd"><svg t="1706066064328" class="icon" viewBox="0 0 1024 1024" version="1.1" xmlns="http://www.w3.org/2000/svg" p-id="4275" xmlns:xlink="http://www.w3.org/1999/xlink" width="24" height="24"><path d="M280.064 145.066667l243.419429 340.675047 0.243809-0.316952 44.812191 62.683428-0.24381 0.341334 78.872381 110.445714a143.043048 143.043048 0 1 1-36.059429 75.337143l-88.185904-123.465143-91.769905 126.122667c0.560762 4.388571 0.926476 8.850286 1.097143 13.360762l0.097524 5.363809a143.043048 143.043048 0 1 1-36.108191-95.036952l81.871238-112.518095L220.550095 187.587048l59.513905-42.520381z m472.502857 540.647619a69.90019 69.90019 0 1 0 0 139.776 69.90019 69.90019 0 0 0 0-139.776z m-463.238095 0a69.90019 69.90019 0 1 0 0 139.776 69.90019 69.90019 0 0 0 0-139.776zM771.803429 144.798476l59.123809 43.056762-232.106667 318.732191-44.836571-62.70781L771.803429 144.822857z" p-id="4276" fill="#FEFEFE"></path></svg>