<?xml version="1.0" standalone="no"?><!DOCTYPE svg PUBLIC "-//W3C//DTD SVG 1.1//EN" "http://www.w3.org/Graphics/SVG/1.1/DTD/svg11.dtd"><svg t="1705918786646" class="icon" viewBox="0 0 1024 1024" version="1.1" xmlns="http://www.w3.org/2000/svg" p-id="13872" xmlns:xlink="http://www.w3.org/1999/xlink" width="24" height="24"><path d="M585.03232 113.792h340.16c28.544 0 51.648 25.472 51.648 56.896v56.896H47.17632V56.896c0-31.424 23.104-56.896 51.648-56.896h382.912l103.296 113.792zM51.65632 341.312h920.704c14.4 0 28.16 6.656 38.016 18.368 9.792 11.712 14.656 27.392 13.44 43.264l-43.072 568.896c-2.24 29.44-24.576 52.16-51.456 52.16H94.72832c-26.88 0-49.28-22.72-51.456-52.16L0.20032 402.944a60.544 60.544 0 0 1 13.44-43.264 49.6 49.6 0 0 1 38.016-18.368z" fill="#4C7DFF" p-id="13873"></path></svg>