<?xml version="1.0" standalone="no"?><!DOCTYPE svg PUBLIC "-//W3C//DTD SVG 1.1//EN" "http://www.w3.org/Graphics/SVG/1.1/DTD/svg11.dtd"><svg t="1705652957789" class="icon" viewBox="0 0 1024 1024" version="1.1" xmlns="http://www.w3.org/2000/svg" p-id="2957" xmlns:xlink="http://www.w3.org/1999/xlink" width="24" height="24"><path d="M512 30.117647C493.929412 30.117647 481.882353 42.164706 481.882353 60.235294s12.047059 30.117647 30.117647 30.117647c234.917647 0 421.647059 186.729412 421.647059 421.647059s-186.729412 421.647059-421.647059 421.647059-421.647059-186.729412-421.647059-421.647059c0-126.494118 54.211765-240.941176 150.588235-325.270588V301.176471c0 18.070588 12.047059 30.117647 30.117648 30.117647S301.176471 319.247059 301.176471 301.176471V120.470588c0-18.070588-12.047059-30.117647-30.117647-30.117647h-180.705883c-18.070588 0-30.117647 12.047059-30.117647 30.117647s12.047059 30.117647 30.117647 30.117647h102.4C90.352941 240.941176 30.117647 373.458824 30.117647 512c0 265.035294 216.847059 481.882353 481.882353 481.882353s481.882353-216.847059 481.882353-481.882353-216.847059-481.882353-481.882353-481.882353z" fill="#FEFEFE" p-id="2958"></path><path d="M674.635294 692.705882L548.141176 566.211765H542.117647V271.058824c0-18.070588-12.047059-30.117647-30.117647-30.117648s-30.117647 12.047059-30.117647 30.117648v301.17647c0 12.047059 6.023529 24.094118 18.070588 24.094118 0 0 0 6.023529 6.02353 6.023529l126.494117 126.494118c12.047059 12.047059 30.117647 12.047059 42.164706 0 12.047059-6.023529 12.047059-24.094118 0-36.141177z" fill="#FEFEFE" p-id="2959"></path></svg>