<?xml version="1.0" standalone="no"?><!DOCTYPE svg PUBLIC "-//W3C//DTD SVG 1.1//EN" "http://www.w3.org/Graphics/SVG/1.1/DTD/svg11.dtd"><svg t="1705652681812" class="icon" viewBox="0 0 1024 1024" version="1.1" xmlns="http://www.w3.org/2000/svg" p-id="2350" xmlns:xlink="http://www.w3.org/1999/xlink" width="24" height="24"><path d="M785.066667 68.266667v341.333333c0 40.96-27.306667 68.266667-68.266667 68.266667H307.2c-40.96 0-68.266667-27.306667-68.266667-68.266667V68.266667H170.666667c-40.96 0-68.266667 27.306667-68.266667 68.266666v750.933334c0 40.96 27.306667 68.266667 68.266667 68.266666h682.666666c40.96 0 68.266667-27.306667 68.266667-68.266666V136.533333c0-40.96-27.306667-68.266667-68.266667-68.266666h-68.266666zM170.666667 0h682.666666c75.093333 0 136.533333 61.44 136.533334 136.533333v750.933334c0 75.093333-61.44 136.533333-136.533334 136.533333H170.666667c-75.093333 0-136.533333-61.44-136.533334-136.533333V136.533333C34.133333 61.44 95.573333 0 170.666667 0z m136.533333 68.266667v341.333333h409.6V68.266667H307.2z" fill="#FEFEFE" p-id="2351"></path><path d="M614.4 136.533333c20.48 0 34.133333 13.653333 34.133333 34.133334v136.533333c0 20.48-13.653333 34.133333-34.133333 34.133333S580.266667 327.68 580.266667 307.2v-136.533333c0-20.48 13.653333-34.133333 34.133333-34.133334z" fill="#FEFEFE" p-id="2352"></path></svg>