<?xml version="1.0" standalone="no"?><!DOCTYPE svg PUBLIC "-//W3C//DTD SVG 1.1//EN" "http://www.w3.org/Graphics/SVG/1.1/DTD/svg11.dtd"><svg t="1705652419090" class="icon" viewBox="0 0 1024 1024" version="1.1" xmlns="http://www.w3.org/2000/svg" p-id="11842" xmlns:xlink="http://www.w3.org/1999/xlink" width="24" height="24"><path d="M403.2 96c-32-12.8-70.4 12.8-76.8 44.8l-166.4 620.8c-6.4 32 12.8 70.4 44.8 76.8L640 953.6c32 6.4 70.4-12.8 76.8-44.8l166.4-620.8c6.4-32-12.8-70.4-44.8-76.8L403.2 96z m19.2-64l435.2 115.2c70.4 19.2 108.8 89.6 89.6 153.6l-166.4 620.8c-19.2 70.4-89.6 108.8-153.6 89.6L185.6 896C115.2 876.8 76.8 806.4 96 742.4l166.4-620.8C281.6 57.6 352 12.8 422.4 32z" fill="#FEFEFE" p-id="11843"></path><path d="M192 128h448c70.4 0 128 57.6 128 128v640c0 70.4-57.6 128-128 128H192c-70.4 0-128-57.6-128-128V256c0-70.4 57.6-128 128-128z m256 448V416c0-19.2-12.8-32-32-32s-32 12.8-32 32V576H224c-19.2 0-32 12.8-32 32s12.8 32 32 32H384v160c0 19.2 12.8 32 32 32s32-12.8 32-32V640h160c19.2 0 32-12.8 32-32S627.2 576 608 576H448z" fill="#FEFEFE" p-id="11844"></path></svg>