<?xml version="1.0" standalone="no"?><!DOCTYPE svg PUBLIC "-//W3C//DTD SVG 1.1//EN" "http://www.w3.org/Graphics/SVG/1.1/DTD/svg11.dtd"><svg t="1705652517389" class="icon" viewBox="0 0 1024 1024" version="1.1" xmlns="http://www.w3.org/2000/svg" p-id="1991" xmlns:xlink="http://www.w3.org/1999/xlink" width="24" height="24"><path d="M68.266667 409.6v477.866667c0 40.96 27.306667 68.266667 68.266666 68.266666h750.933334c40.96 0 68.266667-27.306667 68.266666-68.266666V409.6c40.96 0 68.266667 27.306667 68.266667 68.266667v409.6c0 75.093333-61.44 136.533333-136.533333 136.533333H136.533333c-75.093333 0-136.533333-61.44-136.533333-136.533333V477.866667c0-40.96 27.306667-68.266667 68.266667-68.266667z" fill="#FEFEFE" p-id="1992"></path><path d="M204.8 395.946667L68.266667 471.04l409.6 232.106667c20.48 13.653333 47.786667 13.653333 68.266666 0l409.6-232.106667-136.533333-75.093333V314.026667L983.04 409.6c34.133333 20.48 47.786667 61.44 27.306667 95.573333-6.826667 13.653333-13.653333 20.48-27.306667 27.306667l-409.6 232.106667c-40.96 20.48-95.573333 20.48-136.533333 0l-409.6-232.106667c-20.48-20.48-34.133333-61.44-13.653334-95.573333 6.826667-13.653333 13.653333-20.48 20.48-27.306667L204.8 314.026667v81.92z" fill="#FEFEFE" p-id="1993"></path><path d="M819.2 546.133333V136.533333c0-40.96-27.306667-68.266667-68.266667-68.266666H273.066667c-40.96 0-68.266667 27.306667-68.266667 68.266666v409.6H136.533333V136.533333c0-75.093333 61.44-136.533333 136.533334-136.533333h477.866666c75.093333 0 136.533333 61.44 136.533334 136.533333v409.6h-68.266667z" fill="#FEFEFE" p-id="1994"></path><path d="M375.466667 273.066667h273.066666c20.48 0 34.133333 13.653333 34.133334 34.133333s-13.653333 34.133333-34.133334 34.133333h-273.066666c-20.48 0-34.133333-13.653333-34.133334-34.133333s13.653333-34.133333 34.133334-34.133333zM375.466667 409.6h273.066666c20.48 0 34.133333 13.653333 34.133334 34.133333s-13.653333 34.133333-34.133334 34.133334h-273.066666c-20.48 0-34.133333-13.653333-34.133334-34.133334s13.653333-34.133333 34.133334-34.133333z" fill="#FEFEFE" p-id="1995"></path></svg>