<?xml version="1.0" standalone="no"?><!DOCTYPE svg PUBLIC "-//W3C//DTD SVG 1.1//EN" "http://www.w3.org/Graphics/SVG/1.1/DTD/svg11.dtd"><svg t="1705550941239" class="icon" viewBox="0 0 1024 1024" version="1.1" xmlns="http://www.w3.org/2000/svg" p-id="16686" xmlns:xlink="http://www.w3.org/1999/xlink" width="24" height="24"><path d="M10.803353 892.936231a501.196647 131.063769 0 1 0 1002.393294 0 501.196647 131.063769 0 1 0-1002.393294 0Z" fill="#ECF3FF" p-id="16687"></path><path d="M114.495809 79.210494m16.913273 0l761.181836 0q16.913273 0 16.913273 16.913272l0 761.70333q0 16.913273-16.913273 16.913273l-761.181836 0q-16.913273 0-16.913273-16.913273l0-761.70333q0-16.913273 16.913273-16.913272Z" fill="#0C538E" p-id="16688"></path><path d="M114.495809 61.930767m16.913273 0l761.181836 0q16.913273 0 16.913273 16.913272l0 740.026152q0 16.913273-16.913273 16.913273l-761.181836 0q-16.913273 0-16.913273-16.913273l0-740.026152q0-16.913273 16.913273-16.913272Z" fill="#3390FF" p-id="16689"></path><path d="M268.871705 303.706m5.313587 0l483.818259 0q5.313587 0 5.313587 5.313586l0 54.545305q0 5.313587-5.313587 5.313586l-483.818259 0q-5.313587 0-5.313587-5.313586l0-54.545305q0-5.313587 5.313587-5.313586Z" fill="#DAE9FF" p-id="16690"></path><path d="M260.682862 295.968178m5.313587 0l486.552572 0q5.313587 0 5.313586 5.313586l0 55.447346q0 5.313587-5.313586 5.313586l-486.552572 0q-5.313587 0-5.313587-5.313586l0-55.447346q0-5.313587 5.313587-5.313586Z" fill="#FFFFFF" p-id="16691"></path><path d="M268.871705 455.925454m5.313587 0l483.818259 0q5.313587 0 5.313587 5.313586l0 54.545305q0 5.313587-5.313587 5.313586l-483.818259 0q-5.313587 0-5.313587-5.313586l0-54.545305q0-5.313587 5.313587-5.313586Z" fill="#DAE9FF" p-id="16692"></path><path d="M260.682862 448.173537m5.313587 0l479.716791 0q5.313587 0 5.313586 5.313587l0 54.545304q0 5.313587-5.313586 5.313587l-479.716791 0q-5.313587 0-5.313587-5.313587l0-54.545304q0-5.313587 5.313587-5.313587Z" fill="#FFFFFF" p-id="16693"></path><path d="M268.871705 608.130814m5.313587 0l483.818259 0q5.313587 0 5.313587 5.313586l0 54.545304q0 5.313587-5.313587 5.313587l-483.818259 0q-5.313587 0-5.313587-5.313587l0-54.545304q0-5.313587 5.313587-5.313586Z" fill="#DAE9FF" p-id="16694"></path><path d="M260.682862 600.392991m5.313587 0l479.716791 0q5.313587 0 5.313586 5.313587l0 54.545304q0 5.313587-5.313586 5.313587l-479.716791 0q-5.313587 0-5.313587-5.313587l0-54.545304q0-5.313587 5.313587-5.313587Z" fill="#FFFFFF" p-id="16695"></path><path d="M307.208457 61.930767a74.319739 74.319739 0 0 0-6.582082 30.824439v33.121826c0 18.322712 12.572199 33.220486 27.949183 33.220486h366.848884c15.376984 0 27.949183-14.954152 27.949183-33.220486v-33.121826a74.305645 74.305645 0 0 0-6.582082-30.824439z" fill="#0C538E" p-id="16696"></path><path d="M314.396598 0m10.68355 0l373.82561 0q10.683551 0 10.68355 10.683551l0 109.696667q0 10.683551-10.68355 10.683551l-373.82561 0q-10.683551 0-10.68355-10.683551l0-109.696667q0-10.683551 10.68355-10.683551Z" fill="#ECF3FF" p-id="16697"></path></svg>